<?xml version="1.0" encoding="UTF-8"?><svg id="a" xmlns="http://www.w3.org/2000/svg" viewBox="0 0 243.25 255.15"><defs><style>.b{fill:#343a40;}.c{fill:#4fbfd3;}.d{fill:#f8ac18;}.e{fill:#2a9fb1;}.f{fill:#57b14d;}.g{fill:#4490ce;}.h{fill:#e72f50;}</style></defs><path class="d" d="M156.07,42.87c11.12-6.02,22.76-7.73,35.04-4.3,.74,.21,1.53,.32,2.29,.3,18.05-.45,30.86,8.63,40.37,22.91,8.05,12.09,11.83,25.52,7.92,39.93-1.74,6.41-1.38,13.19-4.43,19.34-7.92,16.02-18.74,28.84-36.43,34.42-4.03,1.27-8.21,1.93-12.46,1.97-6.52-3.64-13.41-6.15-20.88-6.91,.25-4.79,2.21-6.47,6.99-6.19,1.88,.11,3.79,.08,5.66-.12,12.61-1.38,23.82-6.3,34.45-13.09,13.71-8.77,18.65-26,14.85-39.43-5.41-19.15-18.16-32.98-36.4-41.43-1.61-.75-3.23-.65-4.9-.42-7.17,.96-14.18,2.51-20.93,5.17-15.62,6.14-27.75,15.66-32.42,32.7-1.16,4.25-3.32,5.64-6.6,4.92-3.04-.67-4.25-2.77-4.02-6.98,5.73-17.92,15.55-32.78,31.89-42.79Z"/><path class="f" d="M122.91,200.23c-1.91,6-2.95,12.27-5.6,18.05-7.01,15.28-17.01,27.58-33.38,33.56-2.93,1.07-5.96,1.87-9.04,2.14-8.19,.71-16.42,1.74-24.63,.79-10.35-1.2-18.81-6.16-26.03-13.62-8.94-9.25-15.52-19.68-17.55-32.59-.5-3.18-1.09-6.36-1.04-9.6,.01-.77,.05-1.62-.22-2.31-4.49-11.18-.87-20.91,5.54-29.99,6-8.5,14.1-14.72,23.02-19.92,4.26,2.08,8.64,3.86,13.17,5.26-2.21,1.69-4.99,2.3-7.24,4.03-10.2,7.82-17.33,17.81-21.27,29.98-1.28,3.95-2.92,8.01-2.11,12.35,1.45,7.77,3.65,15.29,6.79,22.59,7.52,17.49,25.67,24.52,39.89,22.83,19.78-2.36,34.97-12.97,43.4-31.81,2.45-5.47,4.32-11.14,6.06-16.87,1.08-3.56,3.36-4.96,6.44-4.29,3.36,.74,3.77,3.49,4.27,6.2-1.1,.95,.95,2.34-.45,3.25Z"/><path class="c" d="M47.13,151.99c-4.53-1.4-8.91-3.18-13.17-5.26-6.79-4.19-12.64-9.64-19.13-14.26C-.24,121.74-4.46,99.59,5.12,83.86c5.2-8.54,13.09-13.8,22.15-17.33,10.41-4.05,21.28-6.06,32.47-6.25,1.05,4.77,3.44,9,5.52,13.34-.44,.05-.92,.23-1.31,.12-11.83-3.58-23.02-.89-34.09,3.38-2.68,1.03-4.53,2.34-4.68,5.56-.14,2.98-.8,5.93-1.18,8.91-1.16,9.05-2.19,18.14-.23,27.19,.8,3.71,1.35,8.11,5.47,9.7,16.24,6.25,32.22,6.58,47.44-3.14,2.36-1.5,4.63-2.03,7.17-.69,1.89,2.73,1.94,5.64,.84,8.66-4.55,9.74-11.4,16.84-22.35,19.03-5.07,1.02-10.16,.46-15.22-.35ZM12.83,92.42c-2.59,5.53-3.32,11.15-.84,16.88,.05-5.63,.78-11.22,.84-16.88Z"/><path class="g" d="M122.91,200.23c1.39-.91-.65-2.3,.45-3.25,.34-.28,.74-.5,1.01-.83,1.68-2.1,3.95-2.59,6.29-1.77,2.27,.8,3.33,2.74,3.48,5.19,.07,1.2,.35,2.41,.65,3.58,2.17,8.27,5.44,15.64,14.23,19.06,6.48,2.52,13,4.88,19.65,6.92,1.96,.6,3.37,.4,4.9-.73,4.09-3.03,8.3-5.91,12.3-9.05,6.66-5.24,12.94-10.84,16.05-19.08,.78-2.06,2.05-4.21,1.43-6.36-3.7-12.72-10.61-22.74-23.74-27.31-5.52-1.92-11.29-3.1-16.55-5.77-2.26-1.15-3.26-3.01-3.19-5.37,.06-2,1.22-3.54,3.02-4.46,1.45-.74,3.08-.14,4.59-.45,7.47,.75,14.36,3.26,20.88,6.91,2.57,1.97,5.76,2.69,8.56,4.2,11.16,6.02,15.85,15.56,17.46,27.96,1.46,11.25-2.63,19.49-9.63,27.39-4.7,5.3-9.07,10.84-14.32,15.71-8.21,7.62-17.42,9.78-28.23,7.55-11.89-2.46-21.76-8.53-30.7-16.31-7.16-6.23-9.62-14.4-8.62-23.71Z"/><path class="h" d="M65.26,73.63c-2.08-4.35-4.47-8.57-5.52-13.34-.22-4.61-2.34-8.77-3.06-13.27-1.64-10.25-.74-19.94,7.24-27.47,4.5-4.24,9.62-7.54,16.04-8.98,6.14-1.37,11.94-4.19,17.94-6.21C104.32,2.2,110.8,.2,117.69,.01c8.9-.25,15.34,3.67,19.74,11.23,.62,1.06,1.4,2.1,1.66,3.26,1.46,6.46,5.63,11.1,10.09,15.62,3.5,3.56,5.78,7.86,6.88,12.75-16.35,10-26.16,24.87-31.89,42.79-2.91-2.7-2.17-5.45-.25-8.33,5.5-8.26,10.2-16.9,12.44-26.69,2.23-9.75,1.2-18.49-6.96-25.47-7.65-6.55-15.85-11.25-26.39-8.93-7.26,1.6-14.47,3.38-21.67,5.24-2.79,.72-5.58,1.75-6.97,4.65-5.74,11.95-7.93,24.01-1.09,36.35,.84,1.92,1.67,3.85,2.53,5.77,1.73,3.86,1.33,5.6-1.98,8.32-3.78,1.73-5.87-1.49-8.58-2.93Z"/><path class="b" d="M83.85,124.64c1.59-1.67,1.2-3.99,1.94-5.95,3.24-8.47,9.83-13.55,17.57-17.43,11.31-5.67,23.18-4.87,34.94-2.26,10.13,2.25,14.6,10.27,12.99,21.56-.55,3.85-.98,7.71-.45,11.61,.63,4.64-1.54,8.18-4.59,11.33-3.85,3.99-8.02,7.62-11.57,11.95-3.33,4.06-8.08,6.07-13.6,6.02-7.48-.07-14.91,.07-21.62-4.18-7.54-4.77-12.75-10.97-13.85-20.14-.15-1.28-.07-2.7-.93-3.85,1.1-3.02,1.05-5.93-.84-8.66Zm56.27-.8c.3-5.07-1.4-8.47-5.79-10.67-3.81-1.91-7.85-3.12-11.78-4.67-2.31-.91-4.04-.33-5.81,1.11-6.59,5.37-12.33,11.55-17.69,18.12-1.2,1.48-1.15,2.76-.35,4.27,2.05,3.83,3.91,7.77,6.16,11.47,3.93,6.45,9.75,7.92,16.64,4.84,6.19-2.76,11.41-6.4,14-13,.52-1.33,1.37-2.56,2.21-3.73,1.77-2.45,2.71-5.1,2.4-7.75Z"/><path class="e" d="M73.29,62.47c3.23,1.11,5.79,3.14,7.98,5.72,1.9,2.24,2.67,4.6,.82,7.22-1.73,2.45-4.09,2.77-6.75,1.78-.51-.19-1-.42-1.49-.63,3.31-2.73,3.71-4.47,1.98-8.32-.86-1.91-1.69-3.84-2.53-5.77Z"/></svg>